<?xml version="1.0" encoding="UTF-8"?>
<!-- Generated by Pixelmator Pro 3.5.6 -->
<svg width="800" height="800" viewBox="0 0 800 800" xmlns="http://www.w3.org/2000/svg">
    <path id="Path" fill="none" stroke="#000000" stroke-width="48" stroke-linecap="round" stroke-linejoin="round" d="M 442.668793 590.719971 C 443.712006 607.952026 430.671997 622.803223 413.452789 624 L 354.572815 624 C 337.350403 622.803223 324.313599 607.952026 325.356812 590.719971 L 325.356812 526.079956 C 254.410873 499.73761 207.518082 431.836792 208.012161 356.160004 C 206.874557 257.813477 285.665924 177.159668 384.012787 176 C 482.358398 177.159668 561.148804 257.813477 560.012817 356.160004 C 560.505615 431.836792 513.612793 499.73761 442.668793 526.079956 L 442.668793 590.719971 Z"/>
    <path id="Ellipse" fill="#fffc67" fill-rule="evenodd" stroke="#000000" stroke-width="7" d="M 506 353 C 506 285.621277 451.378723 231 384 231 C 316.621277 231 262 285.621277 262 353 C 262 420.378723 316.621277 475 384 475 C 451.378723 475 506 420.378723 506 353 Z"/>
    <path id="path1" fill="none" stroke="#000000" stroke-width="48" stroke-linecap="round" d="M 442.668793 526.076782 L 325.356812 526.076782"/>
</svg>
